<svg xmlns="http://www.w3.org/2000/svg"  viewBox="0 0 48 48" width="48px" height="48px"><circle cx="24" cy="24" r="20" fill="#1565c0"/><path fill="#fff" d="M32,27h-7v3h-2v-3h-7l-7.244,4.477c2.634,5.347,7.983,9.12,14.244,9.487V38h2v2.964	c6.261-0.367,11.61-4.14,14.244-9.487L32,27z M25,36h-2v-4h2V36z"/><circle cx="27" cy="22" r="2" fill="#fff"/><circle cx="19" cy="14" r="2" fill="#fff"/><circle cx="11" cy="22" r="2" fill="#fff"/><polygon fill="#fff" points="29.879,17.707 27,20.586 19,12.586 10.293,21.293 11.707,22.707 19,15.414 27,23.414 31.293,19.121"/><polygon fill="#fff" points="36.707,13.707 35.293,12.293 34,13.586 32.707,12.293 31.293,13.707 32.586,15 31.293,16.293 32.707,17.707 34,16.414 35.293,17.707 36.707,16.293 35.414,15"/></svg>